<svg width="20" height="20" viewBox="0 0 20 20" fill="none" xmlns="http://www.w3.org/2000/svg">
<path d="M1.25 13.75C1.25 15.0761 1.77679 16.3479 2.71447 17.2855C3.65215 18.2232 4.92392 18.75 6.25 18.75C7.57608 18.75 8.84785 18.2232 9.78553 17.2855C10.7232 16.3479 11.25 15.0761 11.25 13.75C11.25 13.1758 11.0851 12.3961 10.7383 11.4342C10.3968 10.4871 9.90532 9.43482 9.31585 8.33768C8.42051 6.67124 7.32436 4.94796 6.25 3.40043C5.17563 4.94796 4.07949 6.67124 3.18415 8.33768C2.59468 9.43482 2.10323 10.4871 1.76171 11.4342C1.41488 12.3961 1.25 13.1758 1.25 13.75ZM5.48182 2.31775C5.74149 1.94911 5.99858 1.59213 6.25 1.25C6.50142 1.59213 6.75851 1.94911 7.01818 2.31775C9.6284 6.02326 12.5 10.9078 12.5 13.75C12.5 15.4076 11.8415 16.9973 10.6694 18.1694C9.49731 19.3415 7.9076 20 6.25 20C4.5924 20 3.00269 19.3415 1.83058 18.1694C0.658482 16.9973 0 15.4076 0 13.75C0 10.9078 2.8716 6.02326 5.48182 2.31775Z" fill="black"/>
<path d="M13.5 6.66667C13.5 6.43629 13.5776 6.07579 13.7782 5.58137C13.9731 5.10071 14.2577 4.55747 14.6056 3.98185C15.0867 3.18602 15.6679 2.36242 16.25 1.60437C16.8321 2.36242 17.4133 3.18602 17.8944 3.98185C18.2423 4.55747 18.5269 5.10071 18.7218 5.58137C18.9224 6.07579 19 6.43629 19 6.66667C19 7.24495 18.7426 7.82713 18.2373 8.27628C17.7282 8.72885 17.0149 9 16.25 9C15.4851 9 14.7718 8.72885 14.2627 8.27628C13.7574 7.82713 13.5 7.24495 13.5 6.66667ZM15.6104 0.796804C14.0948 2.74165 12.5 5.20826 12.5 6.66667C12.5 7.55072 12.8951 8.39857 13.5984 9.02369C14.3016 9.64881 15.2554 10 16.25 10C17.2446 10 18.1984 9.64881 18.9016 9.02369C19.6049 8.39857 20 7.55072 20 6.66667C20 5.20826 18.4052 2.74165 16.8896 0.796804C16.6731 0.519077 16.4583 0.251992 16.25 0C16.0417 0.251992 15.8269 0.519077 15.6104 0.796804Z" fill="black"/>
</svg>
