<svg width="16" height="16" viewBox="0 0 16 16" fill="none" xmlns="http://www.w3.org/2000/svg">
<path d="M13.0951 4.1038C13.0951 2.39232 11.6507 1 9.8764 1H8.5338C8.32831 1 8.13124 1.07356 7.98593 1.20448C7.84063 1.33541 7.759 1.51299 7.759 1.69815C7.759 1.88332 7.84063 2.0609 7.98593 2.19182C8.13124 2.32275 8.32831 2.39631 8.5338 2.39631H9.8764C10.7962 2.39631 11.5444 3.16229 11.5444 4.1038C11.5444 5.04531 10.7962 5.81128 9.8764 5.81128H0.774793C0.569305 5.81128 0.372234 5.88484 0.226932 6.01577C0.0816298 6.1467 0 6.32428 0 6.50944C0 6.6946 0.0816298 6.87218 0.226932 7.00311C0.372234 7.13404 0.569305 7.20759 0.774793 7.20759H9.87751C11.6507 7.20859 13.0951 5.81527 13.0951 4.1038ZM11.5998 8.60789H1.82519C1.6197 8.60789 1.42263 8.68145 1.27733 8.81238C1.13203 8.94331 1.0504 9.12089 1.0504 9.30605C1.0504 9.49121 1.13203 9.66879 1.27733 9.79972C1.42263 9.93065 1.6197 10.0042 1.82519 10.0042H11.6009C12.6203 10.0042 13.4493 10.8111 13.4493 11.8034C13.4493 12.7958 12.6203 13.6037 11.6009 13.6037H10.1586C9.95316 13.6037 9.75609 13.6772 9.61079 13.8082C9.46548 13.9391 9.38385 14.1167 9.38385 14.3018C9.38385 14.487 9.46548 14.6646 9.61079 14.7955C9.75609 14.9264 9.95316 15 10.1586 15H11.6009C13.4748 15 15 13.5658 15 11.8034C14.9989 10.0421 13.4748 8.60789 11.5998 8.60789Z" fill="black"/>
<path d="M3.5 1.75C3.5 2.16421 3.16421 2.5 2.75 2.5C2.33579 2.5 2 2.16421 2 1.75C2 1.33579 2.33579 1 2.75 1C3.16421 1 3.5 1.33579 3.5 1.75Z" fill="black"/>
<path d="M6 5C6.55228 5 7 4.55228 7 4C7 3.44772 6.55228 3 6 3C5.44772 3 5 3.44772 5 4C5 4.55228 5.44772 5 6 5Z" fill="black"/>
<path d="M5 14C5.55228 14 6 13.5523 6 13C6 12.4477 5.55228 12 5 12C4.44772 12 4 12.4477 4 13C4 13.5523 4.44772 14 5 14Z" fill="black"/>
<path d="M1.75 12.5C2.16421 12.5 2.5 12.1642 2.5 11.75C2.5 11.3358 2.16421 11 1.75 11C1.33579 11 1 11.3358 1 11.75C1 12.1642 1.33579 12.5 1.75 12.5Z" fill="black"/>
<path d="M9.5 11.75C9.5 12.1642 9.16421 12.5 8.75 12.5C8.33579 12.5 8 12.1642 8 11.75C8 11.3358 8.33579 11 8.75 11C9.16421 11 9.5 11.3358 9.5 11.75Z" fill="black"/>
<path d="M15 7C15.5523 7 16 6.55228 16 6C16 5.44772 15.5523 5 15 5C14.4477 5 14 5.44772 14 6C14 6.55228 14.4477 7 15 7Z" fill="black"/>
</svg>
