<svg width="24" height="24" viewBox="0 0 24 24" fill="none" xmlns="http://www.w3.org/2000/svg">
<path d="M0.5 17L9 19.4022M15 21.0978L23.5 23.5M0.5 23.5L23.5 17M12.0001 17C8.72424 17 5.9022 14.3444 5.9022 11.0685C5.9022 9.3666 6.63321 7.74672 7.90935 6.62074L9.84893 4.90938C11.1088 3.79772 11.8874 2.17309 12.0001 0.499695H12.3588C13.4412 1.89128 13.7904 3.61613 13.8374 5.12835C13.8921 6.88963 15.3214 8.5817 17.0766 8.42526L17.4593 8.39115C17.8746 9.21217 18.0979 10.1278 18.0979 11.0685C18.0979 14.3444 15.276 17 12.0001 17ZM12.0001 17C13.5417 17 14.8694 15.7302 14.8694 14.1638C14.8694 13.35 14.5254 12.5755 13.9249 12.0371L13.0122 11.2188C12.3588 10.5434 12.1795 9.82765 12.1795 9.82765H11.8208C11.8208 9.82765 11.6414 10.5434 10.9876 11.2188L10.0748 12.0371C9.47433 12.5755 9.13033 13.35 9.13033 14.1638C9.13033 15.7302 10.4586 17 12.0001 17Z" stroke="black"/>
</svg>
