<svg width="16" height="16" viewBox="0 0 16 16" fill="none" xmlns="http://www.w3.org/2000/svg">
<path d="M15.63 9.37923C15.5886 9.22918 15.4899 9.1014 15.3551 9.02347C15.2203 8.94553 15.0603 8.92368 14.9095 8.96264L12.2807 9.66755L11.1081 8.9897C11.355 8.27493 11.3311 7.49448 11.041 6.79612L12.2642 6.09003L14.7459 6.75493C14.7959 6.76776 14.8473 6.77448 14.8989 6.77493C15.0418 6.77514 15.1799 6.72338 15.2875 6.62931C15.395 6.53524 15.4646 6.40528 15.4834 6.26367C15.5021 6.12206 15.4687 5.97848 15.3893 5.8597C15.3099 5.74092 15.19 5.65505 15.052 5.61812L13.7064 5.25802L14.6588 4.70844C14.7291 4.67166 14.7913 4.62103 14.8416 4.5596C14.8918 4.49818 14.9291 4.42722 14.9513 4.35101C14.9734 4.27479 14.9798 4.19489 14.9703 4.11611C14.9607 4.03733 14.9353 3.9613 14.8956 3.8926C14.8558 3.82389 14.8026 3.76393 14.7391 3.71632C14.6756 3.66871 14.6031 3.63443 14.526 3.61555C14.4489 3.59667 14.3687 3.59358 14.2904 3.60646C14.2121 3.61934 14.1371 3.64792 14.0701 3.6905L13.0271 4.29303L13.425 2.80435C13.4653 2.65361 13.4442 2.49304 13.3663 2.35782C13.2884 2.2226 13.1601 2.12376 13.0094 2.08297C12.8589 2.04522 12.6995 2.06745 12.5651 2.14497C12.4306 2.22249 12.3316 2.34922 12.2889 2.49838L11.5849 5.12504L10.4123 5.80053C9.90552 5.24413 9.22164 4.88029 8.47687 4.77081V3.3504L10.2922 1.53575C10.3995 1.42477 10.4588 1.27614 10.4575 1.12186C10.4561 0.96758 10.3942 0.82 10.2851 0.710904C10.1759 0.601808 10.0283 0.539926 9.87395 0.538585C9.71961 0.537245 9.57092 0.596553 9.4599 0.703736L8.47687 1.68638V0.588408C8.47687 0.432353 8.41485 0.282689 8.30446 0.172341C8.19407 0.0619928 8.04435 0 7.88823 0C7.73211 0 7.58239 0.0619928 7.472 0.172341C7.36161 0.282689 7.29959 0.432353 7.29959 0.588408V1.79229L6.20825 0.703736C6.15395 0.647537 6.089 0.602711 6.01718 0.571873C5.94536 0.541035 5.86812 0.524803 5.78996 0.524124C5.7118 0.523445 5.63429 0.538333 5.56195 0.567919C5.48961 0.597505 5.42389 0.641196 5.36862 0.696443C5.31335 0.75169 5.26964 0.817387 5.24004 0.8897C5.21044 0.962014 5.19555 1.03949 5.19623 1.11762C5.19691 1.19575 5.21315 1.27296 5.244 1.34475C5.27485 1.41654 5.31969 1.48147 5.37591 1.53575L7.29841 3.45631V4.80141C6.56261 4.96591 5.90631 5.37958 5.44066 5.97234L4.20805 5.26037L3.54289 2.77964C3.52279 2.705 3.48818 2.63504 3.44103 2.57377C3.39389 2.51249 3.33513 2.4611 3.26812 2.42253C3.2011 2.38395 3.12715 2.35895 3.05047 2.34895C2.97379 2.33894 2.89589 2.34413 2.82121 2.36422C2.74654 2.38432 2.67656 2.41891 2.61526 2.46604C2.55396 2.51316 2.50255 2.5719 2.46396 2.63888C2.38602 2.77417 2.36504 2.93486 2.40563 3.08561L2.76588 4.42836L1.81699 3.88114C1.74999 3.83857 1.67507 3.80998 1.59674 3.7971C1.5184 3.78422 1.43827 3.78732 1.36116 3.8062C1.28405 3.82508 1.21155 3.85935 1.14804 3.90696C1.08453 3.95458 1.0313 4.01454 0.991574 4.08324C0.951844 4.15195 0.926428 4.22798 0.916855 4.30676C0.907282 4.38554 0.91375 4.46544 0.935869 4.54165C0.957989 4.61787 0.995303 4.68882 1.04557 4.75025C1.09583 4.81168 1.15801 4.8623 1.22835 4.89909L2.27142 5.50162L0.782162 5.90056C0.645223 5.9383 0.526556 6.02427 0.448048 6.1426C0.369541 6.26094 0.33649 6.40366 0.354991 6.54444C0.373492 6.68522 0.442298 6.81457 0.548716 6.90862C0.655134 7.00267 0.791987 7.05509 0.934031 7.05619C0.985621 7.05614 1.03701 7.04981 1.08708 7.03736L3.71477 6.33245L4.88734 7.0103C4.64047 7.72507 4.66435 8.50552 4.95445 9.20388L3.73125 9.90997L1.24954 9.24507C1.09882 9.20667 0.939048 9.2286 0.804256 9.30619C0.669463 9.38378 0.570296 9.5109 0.527869 9.66049C0.487584 9.81139 0.508842 9.9721 0.586977 10.1074C0.665112 10.2426 0.79374 10.3413 0.944626 10.3819L2.28908 10.742L1.33666 11.2916C1.22503 11.3566 1.1379 11.4565 1.08871 11.5759C1.03953 11.6954 1.03101 11.8276 1.06449 11.9524C1.09796 12.0771 1.17156 12.1874 1.27394 12.2662C1.37632 12.345 1.50178 12.3879 1.63098 12.3883C1.73436 12.3887 1.83597 12.3615 1.9253 12.3095L2.96837 11.707L2.57045 13.1956C2.53013 13.3464 2.55122 13.507 2.62912 13.6422C2.70702 13.7774 2.83536 13.8762 2.98603 13.917C3.03605 13.9299 3.08744 13.9366 3.13908 13.937C3.26837 13.9368 3.394 13.8941 3.49656 13.8154C3.59912 13.7367 3.67291 13.6264 3.70653 13.5016L4.41054 10.875L5.58311 10.1995C6.08992 10.7559 6.7738 11.1197 7.51856 11.2292V12.6496L5.7032 14.4643C5.59597 14.5752 5.53664 14.7239 5.53798 14.8781C5.53932 15.0324 5.60123 15.18 5.71037 15.2891C5.81951 15.3982 5.96714 15.4601 6.12148 15.4614C6.27582 15.4628 6.42452 15.4034 6.53553 15.2963L7.51856 14.3136V15.4116C7.51856 15.5676 7.58058 15.7173 7.69097 15.8277C7.80136 15.938 7.95109 16 8.10721 16C8.26332 16 8.41304 15.938 8.52344 15.8277C8.63383 15.7173 8.69585 15.5676 8.69585 15.4116V14.2077L9.78601 15.2963C9.89703 15.4034 10.0457 15.4628 10.2001 15.4614C10.3544 15.4601 10.502 15.3982 10.6112 15.2891C10.7203 15.18 10.7822 15.0324 10.7836 14.8781C10.7849 14.7239 10.7256 14.5752 10.6183 14.4643L8.69585 12.5437V11.1986C9.43164 11.0341 10.0879 10.6204 10.5536 10.0277L11.7862 10.7396L12.4514 13.2192C12.485 13.344 12.5588 13.4542 12.6613 13.5329C12.7639 13.6116 12.8895 13.6544 13.0188 13.6546C13.0704 13.6545 13.1218 13.6482 13.1719 13.6358C13.3228 13.5952 13.4514 13.4965 13.5295 13.3612C13.6077 13.226 13.6289 13.0653 13.5886 12.9144L13.2284 11.5716L14.1784 12.12C14.2678 12.1721 14.3694 12.1993 14.4728 12.1989C14.602 12.1984 14.7274 12.1555 14.8298 12.0767C14.9322 11.9979 15.0058 11.8877 15.0393 11.7629C15.0727 11.6382 15.0642 11.5059 15.015 11.3865C14.9658 11.267 14.8787 11.1671 14.7671 11.1021L13.724 10.4996L15.2133 10.1006C15.3642 10.0601 15.4928 9.96134 15.5709 9.82609C15.6491 9.69084 15.6703 9.53013 15.63 9.37923ZM7.99772 10.1006C7.58214 10.1004 7.17596 9.97699 6.83054 9.74603C6.48511 9.51507 6.21595 9.18691 6.05707 8.80306C5.8982 8.4192 5.85675 7.99687 5.93797 7.58947C6.01919 7.18207 6.21942 6.80788 6.51336 6.51422C6.8073 6.22056 7.18175 6.02062 7.58936 5.93966C7.99696 5.8587 8.41943 5.90037 8.80336 6.05939C9.18728 6.21842 9.51541 6.48766 9.74627 6.83308C9.97712 7.1785 10.1003 7.58459 10.1003 8C10.0994 8.55704 9.87754 9.09097 9.48339 9.48475C9.08924 9.87852 8.55497 10.1 7.99772 10.1006Z" fill="black"/>
</svg>
