<svg width="30" height="30" viewBox="0 0 30 30" fill="none" xmlns="http://www.w3.org/2000/svg">
<path d="M28.2665 17.7756H27.9204V13.1693C27.9204 5.90552 22.1517 0 15.0562 0C7.96077 0 2.1921 5.90552 2.1921 13.1693V17.7756H1.78829C0.807617 17.7756 0 18.6024 0 19.6063V26.1024C0 27.1063 0.807617 27.9331 1.78829 27.9331H3.69195C3.9227 27.9331 4.09576 27.874 4.3265 27.815V28.1693C4.3265 29.1732 5.13412 30 6.11479 30H7.26853C8.2492 30 9.05681 29.1732 9.05681 28.1693V17.5394C9.05681 16.5354 8.2492 15.7087 7.26853 15.7087H6.11479C5.13412 15.7087 4.3265 16.5354 4.3265 17.5394V17.8937C4.15344 17.8347 3.9227 17.7756 3.69195 17.7756H3.28814V13.1693C3.28814 6.55513 8.53763 1.1811 14.9985 1.1811C21.4595 1.1811 26.7089 6.55513 26.7089 13.1693V17.7756H26.3051C26.0744 17.7756 25.9013 17.8347 25.6706 17.8937V17.5394C25.6706 16.5354 24.863 15.7087 23.8823 15.7087H22.7286C21.7479 15.7087 20.9403 16.5354 20.9403 17.5394V28.1693C20.9403 29.1732 21.7479 30 22.7286 30H23.8823C24.863 30 25.6706 29.1732 25.6706 28.1693V27.815C25.8436 27.874 26.0744 27.9331 26.3051 27.9331H28.2088C29.1895 27.9331 29.9971 27.1063 29.9971 26.1024V19.6063C30.0548 18.5433 29.2472 17.7756 28.2665 17.7756ZM5.53793 17.4803C5.53793 17.126 5.82636 16.8307 6.17248 16.8307H7.32621C7.67233 16.8307 7.96077 17.126 7.96077 17.4803V28.1102C7.96077 28.4646 7.67233 28.7598 7.32621 28.7598H6.17248C5.82636 28.7598 5.53793 28.4646 5.53793 28.1102V26.0433V19.5472V17.4803ZM4.38419 19.5472V26.0433C4.38419 26.3976 4.09576 26.6929 3.74964 26.6929H1.84597C1.49985 26.6929 1.21142 26.3976 1.21142 26.0433V19.5472C1.21142 19.1929 1.49985 18.8976 1.84597 18.8976H3.74964C4.09576 18.9567 4.38419 19.1929 4.38419 19.5472ZM24.6322 28.1102C24.6322 28.4646 24.3438 28.7598 23.9977 28.7598H22.8439C22.4978 28.7598 22.2094 28.4646 22.2094 28.1102V17.4803C22.2094 17.126 22.4978 16.8307 22.8439 16.8307H23.9977C24.3438 16.8307 24.6322 17.126 24.6322 17.4803V19.5472V26.0433V28.1102ZM28.901 26.0433C28.901 26.3976 28.6126 26.6929 28.2665 26.6929H26.3628C26.0167 26.6929 25.7283 26.3976 25.7283 26.0433V19.5472C25.7283 19.1929 26.0167 18.8976 26.3628 18.8976H28.2665C28.6126 18.8976 28.901 19.1929 28.901 19.5472V26.0433Z" fill="#231F20"/>
</svg>
