<svg width="40" height="44" viewBox="0 0 40 44" fill="none" xmlns="http://www.w3.org/2000/svg">
<path d="M31.746 18.8131L11.7813 1.95329C11.0758 1.33647 10.2998 1.33647 9.59436 1.95329C8.88889 2.57012 8.53616 3.49535 8.53616 4.729V6.47666L3.80952 2.46731C3.0335 1.85049 2.04585 1.85049 1.26983 2.46731C0.493818 3.08414 0 4.31778 0 5.65423V38.3458C0 39.6823 0.493818 40.9159 1.26983 41.5327C1.69311 41.8412 2.11641 42.0468 2.53969 42.0468C2.96297 42.0468 3.38624 41.8412 3.80952 41.5327L8.53616 37.5234V39.2711C8.53616 40.4019 8.95944 41.4299 9.59436 42.0468C9.94709 42.3552 10.2998 42.458 10.6526 42.458C11.0053 42.458 11.4286 42.3552 11.7108 42.0468L31.6755 25.1869C32.4515 24.5701 32.9453 23.3365 32.9453 22C33.0159 20.6636 32.522 19.4299 31.746 18.8131ZM3.10405 39.7851C2.75132 40.0935 2.32803 40.0935 1.9753 39.7851C1.62257 39.4767 1.41093 38.9626 1.41093 38.3458V5.65423C1.41093 5.03741 1.62257 4.52339 1.9753 4.21498C2.11639 4.11217 2.32805 4.00937 2.53969 4.00937C2.75133 4.00937 2.89241 4.11217 3.10405 4.21498L22.5044 20.5608C22.8571 20.8692 23.0688 21.3832 23.0688 22C23.0688 22.6168 22.8571 23.1309 22.5044 23.4393L3.10405 39.7851ZM31.0406 23.3365L11.0758 40.1963C10.7231 40.5047 10.4409 40.2991 10.2998 40.1963C10.1587 40.0935 9.94709 39.7851 9.94709 39.2711V36.4954V36.3926L23.2804 25.1869C24.0564 24.5701 24.5502 23.3365 24.5502 22C24.5502 20.6636 24.0564 19.4299 23.2804 18.8131L9.87654 7.6075C9.87654 7.5047 9.87654 7.5047 9.87654 7.40189V4.729C9.87654 4.11217 10.1587 3.90657 10.2293 3.80376C10.3704 3.70096 10.6526 3.49535 11.0053 3.80376L31.0406 20.5608C31.3933 20.8692 31.6049 21.3832 31.6049 22C31.6049 22.514 31.3933 23.1309 31.0406 23.3365Z" fill="white"/>
<path d="M38.1658 1.52588e-05H35.6966C34.709 1.52588e-05 33.8624 1.23366 33.8624 2.67291V41.3271C33.8624 42.7664 34.709 44 35.6966 44H38.1658C39.1534 44 40 42.7664 40 41.3271V2.67291C40 1.23366 39.1534 1.52588e-05 38.1658 1.52588e-05ZM38.5891 41.3271C38.5891 41.6355 38.3774 41.9439 38.1658 41.9439H35.6966C35.485 41.9439 35.2734 41.6355 35.2734 41.3271V2.67291C35.2734 2.3645 35.485 2.05609 35.6966 2.05609H38.1658C38.3774 2.05609 38.5891 2.3645 38.5891 2.67291V41.3271Z" fill="white"/>
</svg>
