<svg width="33" height="44" viewBox="0 0 33 44" fill="none" xmlns="http://www.w3.org/2000/svg">
<path d="M9.29457 44H3.5814C1.62016 44 0 42.3111 0 40.2667V3.73333C0 1.68889 1.62016 0 3.5814 0H9.29457C11.2558 0 12.876 1.68889 12.876 3.73333V40.2667C12.9612 42.3111 11.3411 44 9.29457 44ZM3.66667 1.6889C2.64341 1.6889 1.7907 2.57778 1.7907 3.64445V40.1778C1.7907 41.2444 2.64341 42.1333 3.66667 42.1333H9.37984C10.4031 42.1333 11.2558 41.2444 11.2558 40.1778V3.64445C11.2558 2.57778 10.4031 1.6889 9.37984 1.6889H3.66667Z" fill="white"/>
<path d="M29.3334 44H23.7055C21.7443 44 20.1241 42.3111 20.1241 40.2666V3.7333C20.1241 1.68886 21.7443 -3.05176e-05 23.7055 -3.05176e-05H29.4187C31.38 -3.05176e-05 33.0001 1.68886 33.0001 3.7333V40.2666C32.9148 42.3111 31.38 44 29.3334 44ZM23.7055 1.68887C22.6823 1.68887 21.8296 2.57775 21.8296 3.64442V40.1777C21.8296 41.2444 22.6823 42.1333 23.7055 42.1333H29.4187C30.442 42.1333 31.2947 41.2444 31.2947 40.1777V3.64442C31.2947 2.57775 30.442 1.68887 29.4187 1.68887H23.7055Z" fill="white"/>
</svg>
