<svg width="32" height="32" viewBox="0 0 32 32" fill="none" xmlns="http://www.w3.org/2000/svg">
<path fill-rule="evenodd" clip-rule="evenodd" d="M15.5 3C15.7062 3 15.8733 3.16713 15.8733 3.3733V4.43989L15.8732 4.4464C18.7079 4.54533 21.4069 5.76832 23.419 7.87624C24.8839 9.4109 25.901 11.3269 26.3824 13.4016L26.3961 13.4613C26.4495 13.6969 26.496 13.9345 26.5355 14.1739C26.5542 14.2872 26.5713 14.4009 26.5869 14.515L26.5981 14.5996C26.6154 14.7336 26.6305 14.868 26.6434 15.0029C26.6804 15.3898 26.6991 15.7801 26.6991 16.1723C26.6991 16.1723 26.4138 15.7918 25.9234 15.3523C25.8312 15.2696 25.7317 15.1849 25.6256 15.1002L25.5775 15.0622C25.5091 15.0086 25.4379 14.9552 25.3643 14.9024C24.7253 14.4449 23.8964 14.0392 22.9661 14.0392C21.8995 14.0392 20.9662 14.5724 20.2996 15.1057C20.1812 15.2004 20.0713 15.2952 19.9705 15.3869C19.8942 15.4562 19.8232 15.5239 19.7577 15.5886L19.7381 15.608C19.415 15.9297 19.233 16.1723 19.233 16.1723C19.233 16.1723 19.051 15.9297 18.728 15.608L18.7083 15.5886C18.6429 15.5239 18.5719 15.4562 18.4956 15.3869C18.3948 15.2952 18.2848 15.2004 18.1664 15.1057C17.5788 14.6356 16.784 14.1655 15.8733 14.0607V27.3715H15.5C15.8733 27.3715 15.8733 27.3715 15.8733 27.3715L15.8733 27.3733L15.8733 27.376L15.8732 27.3836L15.8726 27.4078C15.8719 27.4278 15.8706 27.4553 15.8682 27.4892C15.8632 27.5567 15.8536 27.6504 15.8345 27.7604C15.7967 27.9773 15.7196 28.2729 15.5575 28.5566C15.3933 28.844 15.1365 29.1272 14.7436 29.2909C14.3517 29.4542 13.8663 29.481 13.2763 29.3335C12.6963 29.1885 12.2865 28.9595 12.0212 28.6611C11.7508 28.3568 11.6603 28.0137 11.6603 27.7048C11.6603 27.404 11.7452 27.136 11.8229 26.9516C11.8624 26.8576 11.9021 26.7806 11.9326 26.726C11.9479 26.6986 11.961 26.6766 11.9708 26.6606L11.9831 26.6412L11.9871 26.6349L11.9886 26.6327L11.9894 26.6315C11.9894 26.6315 11.9896 26.6311 12.2975 26.8363L11.9894 26.6315C12.1038 26.4599 12.3358 26.4132 12.5073 26.5276C12.5971 26.5874 12.6525 26.6794 12.6687 26.7781C12.6833 26.8678 12.6654 26.9632 12.6111 27.0449L12.6067 27.0519C12.602 27.0596 12.5942 27.0725 12.5845 27.0899C12.565 27.1249 12.538 27.177 12.511 27.2414C12.4553 27.3736 12.4069 27.5389 12.4069 27.7048C12.4069 27.8625 12.4497 28.0193 12.5792 28.165C12.714 28.3166 12.9707 28.4875 13.4574 28.6092C13.9339 28.7283 14.2485 28.6884 14.4565 28.6018C14.6635 28.5155 14.8068 28.3655 14.9092 28.1862C15.0138 28.0032 15.0699 27.7989 15.0989 27.6325C15.1131 27.5508 15.1201 27.4821 15.1235 27.435C15.1252 27.4116 15.126 27.3938 15.1264 27.3827L15.1267 27.3715L15.1267 27.3704L15.1267 15.3947V14.0607C14.216 14.1655 13.4212 14.6356 12.8335 15.1057C12.7151 15.2004 12.6052 15.2952 12.5044 15.3869C12.4281 15.4562 12.3571 15.5239 12.2916 15.5886L12.272 15.608C11.9489 15.9297 11.7669 16.1723 11.7669 16.1723C11.7669 16.1723 11.5849 15.9297 11.2619 15.608L11.2422 15.5886C11.1768 15.5239 11.1058 15.4562 11.0295 15.3869C10.9287 15.2952 10.8187 15.2004 10.7004 15.1057C10.0337 14.5724 9.10048 14.0392 8.03389 14.0392C7.10358 14.0392 6.27469 14.4449 5.63571 14.9024C5.56205 14.9552 5.49091 15.0086 5.42243 15.0622L5.37439 15.1002C5.26823 15.1849 5.16879 15.2696 5.07659 15.3523C4.58621 15.7918 4.30084 16.1723 4.30084 16.1723C4.30084 15.78 4.31959 15.3898 4.35658 15.0029C4.36947 14.868 4.38458 14.7336 4.40188 14.5996L4.4131 14.515C4.42863 14.4009 4.44576 14.2872 4.46446 14.1739C4.50395 13.9345 4.55047 13.6969 4.60389 13.4613L4.61759 13.4016C5.09894 11.3269 6.1161 9.41089 7.581 7.87624C9.59311 5.76832 12.292 4.54533 15.1267 4.4464L15.1267 4.43989V3.3733C15.1267 3.16713 15.2938 3 15.5 3ZM6.43208 13.6124C6.91483 13.42 7.4533 13.2925 8.03389 13.2925C9.34539 13.2925 10.442 13.9429 11.1668 14.5227C11.2993 14.6288 11.4222 14.7347 11.5347 14.8371C11.6179 14.9129 11.6954 14.9868 11.7669 15.0574C11.8384 14.9868 11.916 14.9129 11.9992 14.8371C12.1116 14.7347 12.2345 14.6288 12.3671 14.5227C13.0919 13.9429 14.1885 13.2925 15.5 13.2925C16.8115 13.2925 17.9081 13.9429 18.6329 14.5227C18.7654 14.6288 18.8883 14.7347 19.0008 14.8371C19.084 14.9129 19.1615 14.9868 19.233 15.0574C19.3045 14.9868 19.382 14.9129 19.4653 14.8371C19.5777 14.7347 19.7006 14.6288 19.8332 14.5227C20.558 13.9429 21.6546 13.2925 22.9661 13.2925C23.5467 13.2925 24.0851 13.42 24.5679 13.6124C24.8797 13.7366 25.1682 13.8879 25.4298 14.0495C25.5596 14.1296 25.6828 14.2123 25.7989 14.2954C25.7744 14.147 25.747 13.9993 25.7168 13.8524C25.6469 13.5125 25.5618 13.1768 25.462 12.8464C24.9578 11.1789 24.0776 9.64749 22.8789 8.39176C20.9157 6.33508 18.2607 5.1865 15.5 5.1865C12.7393 5.1865 10.0843 6.33508 8.12106 8.39176C6.92241 9.64749 6.04213 11.1789 5.53801 12.8464C5.43814 13.1768 5.35304 13.5125 5.28314 13.8524C5.25294 13.9993 5.22558 14.147 5.20109 14.2954C5.31719 14.2123 5.44035 14.1296 5.57014 14.0495C5.83176 13.8879 6.1203 13.7366 6.43208 13.6124Z" fill="#091008"/>
</svg>
