<svg width="32" height="32" viewBox="0 0 32 32" fill="none" xmlns="http://www.w3.org/2000/svg">
<path fill-rule="evenodd" clip-rule="evenodd" d="M15.3673 3.04104C15.3165 3.06352 15.2691 3.09503 15.228 3.13505C15.2008 3.1614 15.1772 3.19055 15.1574 3.22175L9.86838 11.1552C9.64686 11.4875 9.88506 11.9326 10.2844 11.9326H11.9879L8.10233 17.5277C7.87209 17.8593 8.10936 18.3129 8.51302 18.3129H11.1017L7.21617 23.9081C6.98593 24.2396 7.2232 24.6933 7.62686 24.6933H14.2476V29H16.2414V24.6933H23.4926C23.9092 24.6933 24.1431 24.2137 23.8867 23.8854L19.5331 18.3129H22.4957C22.9123 18.3129 23.1462 17.8334 22.8897 17.5051L18.5362 11.9326H20.5071C20.8999 11.9326 21.1393 11.5006 20.9311 11.1676L15.9725 3.23374C15.9536 3.20197 15.9309 3.17213 15.9044 3.14497C15.8645 3.10378 15.8181 3.0709 15.7679 3.04693C15.6444 2.98794 15.4979 2.98298 15.3673 3.04104ZM15.5483 4.36072L11.1384 10.9755H13.8177L9.38687 17.3558H12.9315L8.50071 23.7362H14.6751C14.8753 23.7362 15.0468 23.8591 15.1182 24.0336C15.1895 23.8591 15.361 23.7362 15.5612 23.7362H22.5556L17.5709 17.3558H21.5586L16.574 10.9755H19.6825L15.5483 4.36072Z" fill="#091008"/>
</svg>
