<svg width="40" height="44" viewBox="0 0 40 44" fill="none" xmlns="http://www.w3.org/2000/svg">
<path d="M8.25398 25.1869L28.2187 42.0467C28.9242 42.6635 29.7002 42.6635 30.4056 42.0467C31.1111 41.4299 31.4638 40.5046 31.4638 39.271V37.5233L36.1905 41.5327C36.9665 42.1495 37.9542 42.1495 38.7302 41.5327C39.5062 40.9158 40 39.6822 40 38.3458L40 5.65416C40 4.31771 39.5062 3.08407 38.7302 2.46724C38.3069 2.15883 37.8836 1.95322 37.4603 1.95322C37.037 1.95322 36.6138 2.15883 36.1905 2.46724L31.4638 6.47659L31.4638 4.72893C31.4638 3.59809 31.0406 2.57005 30.4056 1.95322C30.0529 1.64481 29.7002 1.54201 29.3474 1.54201C28.9947 1.54201 28.5714 1.64481 28.2892 1.95322L8.32453 18.813C7.54852 19.4299 7.05468 20.6635 7.05468 22C6.98413 23.3364 7.47796 24.5701 8.25398 25.1869ZM36.8959 4.21491C37.2487 3.9065 37.672 3.9065 38.0247 4.21491C38.3774 4.52332 38.5891 5.03734 38.5891 5.65416L38.5891 38.3458C38.5891 38.9626 38.3774 39.4766 38.0247 39.785C37.8836 39.8878 37.672 39.9906 37.4603 39.9906C37.2487 39.9906 37.1076 39.8878 36.8959 39.785L17.4956 23.4392C17.1429 23.1308 16.9312 22.6168 16.9312 22C16.9312 21.3831 17.1429 20.8691 17.4956 20.5607L36.8959 4.21491ZM8.95944 20.6635L28.9242 3.8037C29.2769 3.49529 29.5591 3.70089 29.7002 3.8037C29.8413 3.9065 30.0529 4.21491 30.0529 4.72893L30.0529 7.50463V7.60743L16.7196 18.813C15.9436 19.4299 15.4498 20.6635 15.4498 22C15.4498 23.3364 15.9436 24.5701 16.7196 25.1869L30.1235 36.3925C30.1235 36.4953 30.1235 36.4953 30.1235 36.5981V39.271C30.1235 39.8878 29.8413 40.0934 29.7707 40.1962C29.6296 40.299 29.3474 40.5046 28.9947 40.1962L8.95944 23.4392C8.60671 23.1308 8.39508 22.6168 8.39508 22C8.39508 21.4859 8.60671 20.8691 8.95944 20.6635Z" fill="white"/>
<path d="M1.83422 44H4.30335C5.29101 44 6.13757 42.7664 6.13757 41.3271L6.13757 2.67289C6.13757 1.23364 5.29101 0 4.30335 0H1.83422C0.846565 0 0 1.23364 0 2.67289L0 41.3271C0 42.7664 0.846565 44 1.83422 44ZM1.41093 2.67289C1.41093 2.36448 1.62258 2.05607 1.83422 2.05607H4.30335C4.51499 2.05607 4.72664 2.36448 4.72664 2.67289L4.72664 41.3271C4.72664 41.6355 4.51499 41.9439 4.30335 41.9439H1.83422C1.62258 41.9439 1.41093 41.6355 1.41093 41.3271L1.41093 2.67289Z" fill="white"/>
</svg>
